<?xml version="1.0" encoding="UTF-8"?> <svg xmlns:xlink="http://www.w3.org/1999/xlink" xmlns="http://www.w3.org/2000/svg" width="142px" height="137px" viewBox="0 0 142 137" version="1.1"><desc>Created with Lunacy</desc><g id="Group-2" transform="translate(1.25 1.25)"><g id="2" fill="#FFFFFF"><path d="M24.0583 18.7106Q24.0583 17.4931 23.6801 16.5892Q23.3019 15.6853 22.6471 15.0858Q21.9922 14.4863 21.1068 14.1912Q20.2214 13.896 19.1883 13.896Q18.3029 13.896 17.4544 14.1358Q16.6058 14.3756 15.8034 14.7999Q15.001 15.2242 14.2539 15.8145Q13.5068 16.4048 12.8612 17.1242L12.8612 13.8776Q14.134 12.6416 15.7112 11.9868Q17.2883 11.3319 19.5573 11.3319Q21.1806 11.3319 22.5641 11.8023Q23.9476 12.2727 24.9621 13.1766Q25.9767 14.0805 26.5578 15.4086Q27.1388 16.7368 27.1388 18.4523Q27.1388 20.0203 26.7791 21.2931Q26.4194 22.5659 25.6908 23.6912Q24.9621 24.8164 23.8553 25.8494Q22.7485 26.8825 21.2544 27.9524Q19.3913 29.2805 18.183 30.2213Q16.9748 31.1621 16.2646 31.9829Q15.5544 32.8038 15.2684 33.6247Q14.9825 34.4456 14.9825 35.5155L28.1534 35.5155L28.1534 38.2271L11.8281 38.2271L11.8281 36.9174Q11.8281 35.2203 12.1971 33.9291Q12.566 32.6378 13.4146 31.4757Q14.2631 30.3135 15.6374 29.1514Q17.0116 27.9892 19.0039 26.532Q20.4427 25.499 21.4112 24.5582Q22.3796 23.6174 22.9699 22.6766Q23.5602 21.7358 23.8092 20.7674Q24.0583 19.7989 24.0583 18.7106Z"></path></g><g id="Group-9" transform="translate(27 26)"><g id="Group-7" transform="translate(0 0.5)"><path d="M36.639 73.277C56.874 73.277 73.278 56.873 73.278 36.638C73.278 16.403 56.874 0 36.639 0C16.404 0 0 16.403 0 36.638C0 56.873 16.404 73.277 36.639 73.277Z" transform="translate(16.611 16.9707)" id="Stroke-1" fill="none" stroke="#FEFEFE" stroke-width="2.5" stroke-linecap="round" stroke-linejoin="round"></path><path d="M23.316 14.581L25.5 14.581L31.243 0L29.042 0L23.316 14.581ZM9.75 13.171L0 13.171L0 10.007C0 7.239 2.51 6.413 4.883 6.413C5.795 6.413 7.463 6.121 7.463 4.746C7.463 3.439 6.431 2.992 5.038 2.94C3.714 2.94 2.356 3.439 2.304 4.625L0.052 4.625C0.275 1.788 2.734 0.98 5.038 0.98C7.291 0.98 9.715 1.874 9.715 4.694C9.715 7.772 7.428 8.46 4.883 8.46C3.869 8.46 2.27 8.718 2.27 10.024L2.27 11.056L9.75 11.056L9.75 13.171ZM18.141 13.171L20.376 13.171L20.376 10.884L21.786 10.884L21.786 8.683L20.376 8.683L20.376 1.135L16.92 1.135L11.503 8.58L11.71 10.884L18.141 10.884L18.141 13.171ZM36.092 13.171L33.478 13.171L38.396 3.301L32.532 3.301L32.532 1.135L41.371 1.135L41.491 2.338L36.092 13.171ZM18.141 3.095L14.065 8.683L18.141 8.683L18.141 3.095Z" transform="translate(31.6734 45.9489)" id="Fill-3" fill="#FEFEFE" fill-rule="evenodd" stroke="none"></path><path d="M104.189 66.787C105.37 62.391 106 57.769 106 53C106 23.729 82.271 0 53 0C23.729 0 0 23.729 0 53C0 82.271 23.729 106 53 106C58.854 106 64.486 105.051 69.751 103.299" transform="translate(0.2501 0.7496)" id="Stroke-5" fill="none" stroke="#FEFEFE" stroke-width="2.5"></path></g><path d="M4.883 8.942L12.761 2.48L0 0L4.883 8.942Z" transform="translate(98.4369 64.9584)" id="Fill-8" fill="#FEFEFE" stroke="none"></path></g></g></svg> 