<svg xmlns="http://www.w3.org/2000/svg" xmlns:xlink="http://www.w3.org/1999/xlink" width="142" height="126" version="1.1" viewBox="0 0 142 126"><desc>Created with Lunacy</desc><g id="Group-6" transform="translate(1.25 1.25)"><g id="4" fill="#FFF"><path d="M25.4971 11.7747L25.4971 29.2436L28.8913 29.2436L28.8913 32.0106L25.4971 32.0106L25.4971 38.2271L22.5087 38.2271L22.5087 32.0106L10.0757 32.0106L10.0757 29.3912Q11.8097 27.4358 13.5806 25.213Q15.3514 22.9902 16.9655 20.7028Q18.5796 18.4154 19.9539 16.1373Q21.3282 13.8591 22.2689 11.7747L25.4971 11.7747ZM13.4883 29.2436L22.5087 29.2436L22.5087 16.2941Q21.1252 18.7106 19.8893 20.6106Q18.6534 22.5106 17.5374 24.0601Q16.4214 25.6096 15.4068 26.864Q14.3922 28.1184 13.4883 29.2436Z"/></g><g id="Group-9" transform="translate(47 19)"><g id="Group-5" transform="translate(0 32.934)"><path id="Stroke-1" fill="none" stroke="#FEFEFE" stroke-width="2.5" d="M0 0.166L0 20.903C0 20.903 27.601 35.131 56.653 20.135L56.653 0M0 16.812L0 37.549C0 37.549 27.601 51.777 56.653 36.781L56.653 16.645M0 33.066L0 53.804C0 53.804 27.601 68.031 56.653 53.035L56.653 32.9" transform="translate(0.2499 10.845)"/><path id="Stroke-3" fill="none" stroke="#FEFEFE" stroke-linejoin="round" stroke-width="2.5" d="M56.652 10.452C56.652 16.224 43.97 20.904 28.326 20.904C12.682 20.904 0 16.224 0 10.452C0 4.679 12.682 0 28.326 0C43.97 0 56.652 4.679 56.652 10.452Z" transform="translate(0.2499 0.559)"/></g><path id="Stroke-6" fill="none" stroke="#F5F5F5" stroke-width="2.5" d="M0 9.121L6.354 15.713L19.2 0" transform="translate(57.2167 15.4072)"/><path id="Stroke-7" fill="none" stroke="#FEFEFE" stroke-linecap="round" stroke-linejoin="round" stroke-width="2.5" d="M17.045 49.642C19.704 50.58 22.565 51.09 25.544 51.09C39.652 51.09 51.089 39.653 51.089 25.545C51.089 11.437 39.652 0 25.544 0C11.436 0 0 11.437 0 25.545C0 28.468 0.49 31.275 1.394 33.891" transform="translate(40.131 0.2496)"/></g></g></svg>