<?xml version="1.0" encoding="UTF-8"?> <svg xmlns:xlink="http://www.w3.org/1999/xlink" xmlns="http://www.w3.org/2000/svg" width="124px" height="141px" viewBox="0 0 124 141" version="1.1"><desc>Created with Lunacy</desc><g id="Group" transform="translate(1.25 1.25)"><g id="1" fill="#FFFFFF"><path d="M13.3554 38.2271L10.3301 38.2271L10.3301 15.3717Q9.97963 15.7222 9.30633 16.1742Q8.63302 16.6261 7.7937 17.0688Q6.95438 17.5116 6.02283 17.8989Q5.09127 18.2863 4.20583 18.5077L4.20583 15.4455Q5.20195 15.1688 6.31797 14.6984Q7.43399 14.2281 8.51312 13.647Q9.59225 13.0659 10.5515 12.4295Q11.5107 11.7931 12.2117 11.1844L13.3554 11.1844L13.3554 38.2271Z"></path></g><g id="Group-24" transform="translate(23 17)"><path d="M46.419 92.838C72.056 92.838 92.838 72.056 92.838 46.419C92.838 20.782 72.056 0 46.419 0C20.782 0 0 20.782 0 46.419C0 72.056 20.782 92.838 46.419 92.838Z" transform="translate(0.2502 16.0413)" id="Stroke-1" fill="none" stroke="#FEFEFE" stroke-width="2.5" stroke-linecap="round" stroke-linejoin="round"></path><path d="M0.5 0L0.5 7.2" transform="translate(45.5504 24.3948)" id="Stroke-3" fill="none" stroke="#FEFEFE" stroke-width="2.5"></path><path d="M0.5 0L0.5 7.2" transform="translate(45.5504 93.4304)" id="Stroke-4" fill="none" stroke="#FEFEFE" stroke-width="2.5"></path><path d="M7.2 0.5L0 0.5" transform="translate(77.587 62.0126)" id="Stroke-5" fill="none" stroke="#FEFEFE" stroke-width="2.5"></path><path d="M7.2 0.5L0 0.5" transform="translate(8.5513 62.0126)" id="Stroke-6" fill="none" stroke="#FEFEFE" stroke-width="2.5"></path><path d="M0 0L26.562 24.035" transform="translate(45.7692 62.4602)" id="Stroke-7" fill="none" stroke="#FEFEFE" stroke-width="2.5"></path><path d="M0 4.538L8.186 0L6.686 6.947L0 4.538Z" transform="translate(89.4229 26.0362)" id="Fill-8" fill="#F5F5F5" stroke="none"></path><g id="Group-19" transform="translate(7 0.845)"><path d="M0 4.538L8.186 0L6.686 6.947L0 4.538Z" transform="translate(82.4229 25.1912)" id="Stroke-9" fill="none" stroke="#F5F5F5" stroke-width="1.8"></path><path d="M82.417 23.543C72.079 9.278 55.281 0 36.317 0C22.511 0 9.853 4.918 0 13.097" transform="translate(4.3519 3.719)" id="Stroke-11" fill="none" stroke="#FEFEFE" stroke-width="2.5"></path><path d="M17.198 0C12.395 1.862 7.656 3.993 3.385 6.901C2.212 7.7 1.076 8.555 0 9.481" transform="translate(0.6879 0.3204)" id="Stroke-13" fill="none" stroke="#FEFEFE" stroke-width="2.5"></path><path d="M0 13.609C4.157 10.567 8.184 7.282 11.556 3.368C12.483 2.293 13.358 1.173 14.158 0" transform="translate(76.2945 102.724)" id="Stroke-15" fill="none" stroke="#FEFEFE" stroke-width="2.5"></path><path d="M5.4 10.8C8.382 10.8 10.8 8.382 10.8 5.4C10.8 2.418 8.382 0 5.4 0C2.418 0 0 2.418 0 5.4C0 8.382 2.418 10.8 5.4 10.8" transform="translate(33.3692 55.775)" id="Fill-17" fill="#FEFEFE" stroke="none"></path></g><path d="M7.064 0.966L0 7.107L0.023 0L7.064 0.966Z" transform="translate(5.2116 101.6134)" id="Fill-20" fill="#F5F5F5" stroke="none"></path><path d="M7.064 0.966L0 7.107L0.023 0L7.064 0.966Z" transform="translate(5.2116 101.6134)" id="Stroke-21" fill="none" stroke="#F5F5F5" stroke-width="1.8"></path><path d="M0 6.918C13.078 18.721 31.437 24.304 49.987 20.362C63.492 17.491 74.851 10.049 82.788 0" transform="translate(8.5376 98.9783)" id="Stroke-22" fill="none" stroke="#FEFEFE" stroke-width="2.5"></path></g></g></svg> 