<?xml version="1.0" encoding="UTF-8"?> <svg xmlns:xlink="http://www.w3.org/1999/xlink" xmlns="http://www.w3.org/2000/svg" width="139px" height="117px" viewBox="0 0 139 117" version="1.1"><desc>Created with Lunacy</desc><g id="Group-8" transform="translate(1.25 1.25)"><g id="5" fill="#FFFFFF"><path d="M27.6922 30.1475Q27.6922 32.0844 27.0282 33.6524Q26.3641 35.2203 25.1374 36.3456Q23.9107 37.4708 22.1767 38.0796Q20.4427 38.6883 18.3214 38.6883Q14.632 38.6883 12.8427 37.5815L12.8427 34.3718Q15.5359 36.1058 18.3582 36.1058Q19.7971 36.1058 20.95 35.6815Q22.1029 35.2572 22.9146 34.5009Q23.7262 33.7446 24.1597 32.6747Q24.5932 31.6048 24.5932 30.332Q24.5932 27.7494 22.8592 26.2829Q21.1252 24.8164 17.8233 24.8164Q17.2883 24.8164 16.6981 24.8349Q16.1078 24.8533 15.5175 24.881Q14.9272 24.9087 14.3646 24.9456Q13.8019 24.9824 13.3408 25.0378L14.2447 11.7747L26.4748 11.7747L26.4748 14.5048L16.8641 14.5048L16.3291 22.2708Q16.9194 22.2339 17.5835 22.2062Q18.2476 22.1786 18.7641 22.1786Q20.867 22.1786 22.5272 22.732Q24.1874 23.2854 25.3403 24.3091Q26.4932 25.3329 27.0927 26.8179Q27.6922 28.3028 27.6922 30.1475Z"></path></g><g id="Group-18" transform="translate(27 28)"><g id="Group-5" transform="translate(10 30.3711)"><path d="M32.648 16.323C32.648 25.338 25.339 32.647 16.324 32.647C7.309 32.647 0 25.338 0 16.323C0 7.308 7.309 0 16.324 0C25.339 0 32.648 7.308 32.648 16.323Z" transform="translate(0.7573 0.6796)" id="Stroke-1" fill="none" stroke="#FEFEFE" stroke-width="2.5" stroke-linecap="round" stroke-linejoin="round"></path><path d="M32.647 16.323C32.647 25.338 25.338 32.647 16.323 32.647C7.308 32.647 0 25.338 0 16.323C0 7.308 7.308 0 16.323 0C25.338 0 32.647 7.308 32.647 16.323Z" transform="translate(55.0476 0.6796)" id="Stroke-3" fill="none" stroke="#FEFEFE" stroke-width="2.5" stroke-linecap="round" stroke-linejoin="round"></path></g><path d="M9.734 12.607L12.607 9.734L9.045 6.173L12.583 2.635L9.948 0L6.41 3.537L2.873 0L0 2.873L3.537 6.41L0.047 9.9L2.683 12.536L6.173 9.046L9.734 12.607Z" transform="translate(45.7097 19.8492)" id="Fill-6" fill="#FEFEFE" stroke="none"></path><g id="Group-17" transform="translate(0 0.3711)"><path d="M53.8 19.965C50.801 7.382 39.785 0 26.654 0C23.972 0 21.291 0.395 18.724 1.176C9.432 4.005 2.241 11.656 0 21.078L107.689 21.078C105.448 11.656 98.257 4.005 88.965 1.176C86.398 0.395 83.718 0 81.035 0C67.904 0 56.888 7.382 53.889 19.965" transform="translate(0.5818 63.6721)" id="Stroke-7" fill="none" stroke="#FEFEFE" stroke-width="2.5"></path><path d="M0.5 0L0.5 20.343" transform="translate(26.986 63.7498)" id="Stroke-9" fill="none" stroke="#FEFEFE" stroke-width="2.5" stroke-linecap="round" stroke-linejoin="round"></path><path d="M7.608 3.804C7.608 5.905 5.905 7.608 3.804 7.608C1.704 7.608 0 5.905 0 3.804C0 1.704 1.704 0 3.804 0C5.905 0 7.608 1.704 7.608 3.804" transform="translate(77.5667 70.5393)" id="Fill-11" fill="#FEFEFE" stroke="none"></path><path d="M0 1.241C6.997 4.048 14.985 3.634 21.689 0" transform="translate(43.1792 48.893)" id="Stroke-13" fill="none" stroke="#FEFEFE" stroke-width="2.5" stroke-linecap="round" stroke-linejoin="round"></path><path d="M50.8191 29.2651C51.9481 21.5501 49.5451 13.4181 43.6081 7.48112C33.6321 -2.49388 17.4581 -2.49388 7.48209 7.48212C1.50009 13.4631 -0.894914 21.6731 0.297086 29.4391" transform="translate(27.15761 0.879175)" id="Stroke-15" fill="none" stroke="#FEFEFE" stroke-width="2.5" stroke-linecap="round" stroke-linejoin="round"></path></g></g></g></svg> 