<svg xmlns="http://www.w3.org/2000/svg" xmlns:xlink="http://www.w3.org/1999/xlink" width="141" height="125" version="1.1" viewBox="0 0 141 125"><desc>Created with Lunacy</desc><g id="Group-13" transform="translate(1.25 1.25)"><g id="3" fill="#FFF"><path d="M16.4582 20.4533L19.1883 20.4533Q21.2544 20.4349 22.4626 19.3834Q23.6709 18.332 23.6709 16.3397Q23.6709 14.4213 22.6655 13.3606Q21.6602 12.2999 19.5942 12.2999Q17.7864 12.2999 16.6243 13.3422Q15.4621 14.3844 15.4621 16.063L10.9796 16.063Q10.9796 13.997 12.0772 12.2999Q13.1747 10.6028 15.1393 9.65283Q17.1039 8.70283 19.5388 8.70283Q23.5602 8.70283 25.8568 10.7227Q28.1534 12.7426 28.1534 16.3397Q28.1534 18.1475 27.0005 19.7431Q25.8476 21.3388 24.0214 22.1504Q26.235 22.9067 27.3879 24.53Q28.5408 26.1533 28.5408 28.4038Q28.5408 32.0194 26.0597 34.1592Q23.5786 36.299 19.5388 36.299Q15.665 36.299 13.1932 34.233Q10.7213 32.1669 10.7213 28.7359L15.2039 28.7359Q15.2039 30.5067 16.3937 31.6135Q17.5835 32.7203 19.5942 32.7203Q21.6786 32.7203 22.8777 31.6135Q24.0767 30.5067 24.0767 28.4038Q24.0767 26.2825 22.8223 25.1388Q21.568 23.9951 19.0961 23.9951L16.4582 23.9951L16.4582 20.4533Z"/></g><g id="Group-9" transform="translate(46 17)"><g id="Group-5" transform="translate(0 0.934)"><path id="Stroke-1" fill="none" stroke="#FEFEFE" stroke-width="2.5" d="M0 0L0 20.737C0 20.737 27.601 34.965 56.653 19.969L56.653 5.834M0 16.646L0 37.383C0 37.383 27.601 51.611 56.653 36.615L56.653 16.479M0 32.9L0 53.638C0 53.638 27.601 67.865 56.653 52.869L56.653 32.734" transform="translate(0.25 44.011)"/><path id="Stroke-3" fill="none" stroke="#FEFEFE" stroke-linecap="round" stroke-linejoin="round" stroke-width="2.5" d="M25.545 51.09C39.653 51.09 51.09 39.653 51.09 25.545C51.09 11.437 39.653 0 25.545 0C11.437 0 0 11.437 0 25.545C0 39.653 11.437 51.09 25.545 51.09Z" transform="translate(40.1303 0.3156)"/></g><path id="Fill-6" fill="#FEFEFE" stroke="none" d="M5.243 14.622L9.558 14.622L9.558 9.272L14.872 9.272L14.872 5.314L9.558 5.314L9.558 0L5.243 0L5.243 5.314L0 5.314L0 9.272L5.243 9.272L5.243 14.622Z" transform="translate(58.239 18.542)"/><path id="Stroke-7" fill="none" stroke="#FEFEFE" stroke-linecap="round" stroke-linejoin="round" stroke-width="2.5" d="M53.666 15.128C49.015 18.553 39.415 20.903 28.327 20.903C12.682 20.903 0 16.224 0 10.452C0 4.679 12.682 0 28.327 0C32.707 0 36.855 0.367 40.557 1.022" transform="translate(0.2495 34.4933)"/></g></g></svg>