<svg xmlns="http://www.w3.org/2000/svg" xmlns:xlink="http://www.w3.org/1999/xlink" width="124" height="118" version="1.1" viewBox="0 0 124 118"><desc>Created with Lunacy</desc><g id="Group-10" transform="translate(1.25 1.25)"><g id="6" fill="#FFF"><path d="M28.6699 29.8339Q28.6699 31.7708 28.0427 33.3941Q27.4155 35.0174 26.3087 36.198Q25.2019 37.3786 23.6709 38.0334Q22.1398 38.6883 20.3505 38.6883Q18.3582 38.6883 16.7811 37.8582Q15.2039 37.0281 14.1063 35.4694Q13.0087 33.9106 12.4369 31.6601Q11.865 29.4096 11.865 26.5873Q11.865 23.1378 12.6306 20.3247Q13.3961 17.5116 14.8073 15.5101Q16.2184 13.5086 18.2107 12.4203Q20.2029 11.3319 22.6563 11.3319Q25.3864 11.3319 27.0466 12.0882L27.0466 14.9475Q24.999 13.896 22.7301 13.896Q20.9592 13.896 19.5388 14.6892Q18.1184 15.4824 17.1039 16.9305Q16.0893 18.3786 15.5451 20.4261Q15.001 22.4737 15.001 24.9824L15.0747 24.9824Q16.901 21.6805 21.1068 21.6805Q22.8408 21.6805 24.2335 22.2708Q25.6262 22.8611 26.6131 23.9402Q27.6 25.0193 28.135 26.5135Q28.6699 28.0077 28.6699 29.8339ZM25.5709 30.2213Q25.5709 28.8378 25.2204 27.731Q24.8699 26.6242 24.2151 25.8494Q23.5602 25.0747 22.601 24.6596Q21.6418 24.2446 20.4243 24.2446Q19.299 24.2446 18.3398 24.6689Q17.3806 25.0931 16.6796 25.8218Q15.9786 26.5504 15.582 27.5189Q15.1854 28.4873 15.1854 29.5757Q15.1854 30.9407 15.5728 32.1305Q15.9602 33.3203 16.6612 34.2058Q17.3621 35.0912 18.3306 35.5985Q19.299 36.1058 20.4796 36.1058Q21.6233 36.1058 22.5641 35.6723Q23.5049 35.2388 24.1689 34.464Q24.833 33.6893 25.202 32.6101Q25.5709 31.531 25.5709 30.2213Z"/></g><g id="Group-11" transform="translate(33 41)"><path id="Stroke-1" fill="none" stroke="#FEFEFE" stroke-linecap="round" stroke-linejoin="round" stroke-width="2.5" d="M12 0C12 0 0 0 0 12L0 57.335C0 57.335 0 69.335 12 69.335L75.227 69.335C75.227 69.335 87.227 69.335 87.227 57.335L87.227 12C87.227 12 87.227 0 75.227 0L12 0Z" transform="translate(0.25 4.6653)"/><path id="Stroke-3" fill="none" stroke="#FEFEFE" stroke-linecap="round" stroke-linejoin="round" stroke-width="2.5" d="M0 0.5L87 0.5" transform="translate(0.5839 23.9141)"/><path id="Stroke-5" fill="none" stroke="#FEFEFE" stroke-width="2.5" d="M0.5 0L0.5 8.8" transform="translate(15.6975 0)"/><path id="Stroke-7" fill="none" stroke="#FEFEFE" stroke-width="2.5" d="M0.5 0L0.5 8.8" transform="translate(71.4703 0)"/><path id="Fill-9" fill="#FEFEFE" fill-rule="evenodd" stroke="none" d="M14.779 12.493C14.779 16.429 10.995 18.384 7.415 18.384C3.784 18.384 0 16.429 0 12.442L0 5.815C0 1.854 3.632 0 7.313 0C11.173 0 14.601 1.498 14.601 5.256L11.249 5.256C11.249 3.707 9.269 2.895 7.364 2.895C5.333 2.895 3.327 3.936 3.327 5.891L3.327 8.456C4.139 7.237 6.018 6.577 7.44 6.577C10.995 6.577 14.779 8.1 14.779 12.493ZM3.327 12.493C3.327 14.448 5.282 15.388 7.415 15.388C9.548 15.388 11.452 14.448 11.452 12.493C11.452 10.538 9.675 9.497 7.44 9.497C5.18 9.497 3.327 10.538 3.327 12.493Z" transform="translate(36.4676 38.0831)"/></g></g></svg>